<?xml version="1.0" encoding="UTF-8" standalone="no"?>
<!DOCTYPE svg PUBLIC "-//W3C//DTD SVG 1.1//EN"
 "http://www.w3.org/Graphics/SVG/1.1/DTD/svg11.dtd">
<!-- Generated by graphviz version 14.1.2 (20260124.0452)
 -->
<!-- Title: chatbot Pages: 1 -->
<svg width="212pt" height="213pt"
 viewBox="0.00 0.00 212.00 213.00" xmlns="http://www.w3.org/2000/svg" xmlns:xlink="http://www.w3.org/1999/xlink">
<g id="graph0" class="graph" transform="scale(1 1) rotate(0) translate(4 208.6)">
<title>chatbot</title>
<polygon fill="white" stroke="none" points="-4,4 -4,-208.6 207.72,-208.6 207.72,4 -4,4"/>
<!-- MessageReceiver -->
<g id="node1" class="node">
<title>MessageReceiver</title>
<path fill="none" stroke="black" d="M153.73,-204.6C153.73,-204.6 49.98,-204.6 49.98,-204.6 43.98,-204.6 37.98,-198.6 37.98,-192.6 37.98,-192.6 37.98,-180.1 37.98,-180.1 37.98,-174.1 43.98,-168.1 49.98,-168.1 49.98,-168.1 153.73,-168.1 153.73,-168.1 159.73,-168.1 165.73,-174.1 165.73,-180.1 165.73,-180.1 165.73,-192.6 165.73,-192.6 165.73,-198.6 159.73,-204.6 153.73,-204.6"/>
<text xml:space="preserve" text-anchor="middle" x="101.86" y="-189.2" font-family="sans-serif" font-size="12.00">📥 MessageReceiver</text>
<text xml:space="preserve" text-anchor="middle" x="101.86" y="-173.45" font-family="sans-serif" font-size="12.00">(Input)</text>
</g>
<!-- AgentProcessor -->
<g id="node2" class="node">
<title>AgentProcessor</title>
<polygon fill="none" stroke="black" points="159.73,-132.1 43.98,-132.1 43.98,-95.6 159.73,-95.6 159.73,-132.1"/>
<text xml:space="preserve" text-anchor="middle" x="101.86" y="-116.7" font-family="sans-serif" font-size="12.00">⚙️ AgentProcessor</text>
<text xml:space="preserve" text-anchor="middle" x="101.86" y="-100.95" font-family="sans-serif" font-size="12.00">(Hidden)</text>
</g>
<!-- MessageReceiver&#45;&gt;AgentProcessor -->
<g id="edge1" class="edge">
<title>MessageReceiver&#45;&gt;AgentProcessor</title>
<path fill="none" stroke="black" d="M101.86,-167.93C101.86,-160.69 101.86,-152.1 101.86,-143.96"/>
<polygon fill="black" stroke="black" points="105.36,-144.08 101.86,-134.08 98.36,-144.08 105.36,-144.08"/>
</g>
<!-- ResponseSender -->
<g id="node3" class="node">
<title>ResponseSender</title>
<polygon fill="none" stroke="black" points="203.72,-29.8 152.79,-59.6 50.93,-59.6 0,-29.8 50.93,0 152.79,0 203.72,-29.8"/>
<text xml:space="preserve" text-anchor="middle" x="101.86" y="-32.65" font-family="sans-serif" font-size="12.00">📤 ResponseSender</text>
<text xml:space="preserve" text-anchor="middle" x="101.86" y="-16.9" font-family="sans-serif" font-size="12.00">(Output)</text>
</g>
<!-- AgentProcessor&#45;&gt;ResponseSender -->
<g id="edge2" class="edge">
<title>AgentProcessor&#45;&gt;ResponseSender</title>
<path fill="none" stroke="black" d="M101.86,-95.45C101.86,-88.34 101.86,-79.78 101.86,-71.26"/>
<polygon fill="black" stroke="black" points="105.36,-71.32 101.86,-61.32 98.36,-71.32 105.36,-71.32"/>
</g>
</g>
</svg>
